<svg xmlns="http://www.w3.org/2000/svg" width="21" height="20" viewBox="0 0 21 20">
    <g fill="none" fill-rule="evenodd">
        <g fill="#FFF" fill-rule="nonzero">
            <g>
                <g>
                    <path d="M1398.416 28h-17.8c-.607 0-1.1.492-1.1 1.1v17.8c0 .292.116.572.322.778.207.206.486.322.778.322h9.58v-7.75h-2.6v-3h2.6V35c-.109-1.07.26-2.132 1.009-2.904.748-.771 1.799-1.172 2.871-1.096.778-.005 1.556.035 2.33.12v2.7h-1.59c-1.26 0-1.5.6-1.5 1.47v1.93h3l-.39 3h-2.61V48h5.1c.292 0 .572-.116.778-.322.206-.206.322-.486.322-.778V29.1c0-.292-.116-.572-.322-.778-.206-.206-.486-.322-.778-.322z" transform="translate(-1379 -972) translate(0 787) translate(0 157)"/>
                </g>
            </g>
        </g>
    </g>
</svg>
