<svg xmlns="http://www.w3.org/2000/svg" width="21" height="20" viewBox="0 0 21 20">
    <g fill="none" fill-rule="evenodd">
        <g fill="#FFF" fill-rule="nonzero">
            <g>
                <g>
                    <path d="M1354.856 31.46c-.485 0-.923.292-1.109.74-.185.45-.083.965.26 1.309.344.343.86.445 1.308.26.449-.186.741-.624.741-1.109 0-.663-.537-1.2-1.2-1.2zm4.6 2.42c-.02-.83-.175-1.65-.46-2.43-.254-.667-.65-1.27-1.16-1.77-.495-.513-1.1-.906-1.77-1.15-.777-.294-1.599-.453-2.43-.47-1.06-.06-1.4-.06-4.12-.06s-3.06 0-4.12.06c-.83.017-1.653.176-2.43.47-.668.247-1.273.64-1.77 1.15-.512.495-.906 1.1-1.15 1.77-.294.777-.453 1.6-.47 2.43-.06 1.06-.06 1.4-.06 4.12s0 3.06.06 4.12c.017.83.176 1.653.47 2.43.244.67.638 1.275 1.15 1.77.497.51 1.102.903 1.77 1.15.777.294 1.6.453 2.43.47 1.06.06 1.4.06 4.12.06s3.06 0 4.12-.06c.831-.017 1.653-.176 2.43-.47.67-.244 1.275-.637 1.77-1.15.512-.497.908-1.102 1.16-1.77.285-.78.44-1.6.46-2.43 0-1.06.06-1.4.06-4.12s0-3.06-.06-4.12zm-1.8 8.12c-.007.635-.122 1.264-.34 1.86-.16.435-.416.828-.75 1.15-.324.33-.717.586-1.15.75-.596.218-1.225.333-1.86.34-1 .05-1.37.06-4 .06s-3 0-4-.06c-.659.012-1.315-.09-1.94-.3-.414-.172-.789-.427-1.1-.75-.332-.321-.585-.715-.74-1.15-.244-.605-.38-1.248-.4-1.9 0-1-.06-1.37-.06-4s0-3 .06-4c.005-.649.123-1.292.35-1.9.176-.422.446-.798.79-1.1.304-.344.68-.617 1.1-.8.61-.22 1.252-.335 1.9-.34 1 0 1.37-.06 4-.06s3 0 4 .06c.635.007 1.264.122 1.86.34.455.169.862.443 1.19.8.328.307.584.683.75 1.1.222.609.337 1.252.34 1.9.05 1 .06 1.37.06 4s-.01 3-.06 4zm-8.14-9.13c-2.832.006-5.124 2.305-5.12 5.137.004 2.832 2.302 5.125 5.133 5.123 2.832-.002 5.127-2.298 5.127-5.13.003-1.363-.538-2.671-1.503-3.634-.965-.963-2.274-1.501-3.637-1.496zm0 8.46c-1.839 0-3.33-1.49-3.33-3.33s1.491-3.33 3.33-3.33c1.84 0 3.33 1.49 3.33 3.33 0 .883-.35 1.73-.975 2.355-.625.624-1.472.975-2.355.975z" transform="translate(-1339 -972) translate(0 787) translate(0 157)"/>
                </g>
            </g>
        </g>
    </g>
</svg>
