<svg xmlns="http://www.w3.org/2000/svg" xmlns:xlink="http://www.w3.org/1999/xlink" width="95" height="112" viewBox="0 0 95 112">
    <defs>
        <path id="nhzg0inzqa" d="M0 0H95V112H0z"/>
        <path id="apzhapssjc" d="M18.311 9.926l-2.853 24.893S8.098 37.892 3.892 39.1c-4.209 1.21-5.257 4.02-1.679 5.564 3.56 1.54 9.143.211 13.289-.537 4.149-.746 6.614.999 7.72 3.75 1.107 2.752 6.303 18.273 16.642 22.48.826 1.574 2.071 5.34 3.55 10.417h27.758c-4.423-8.972-7.904-16.548-8.99-20.202-3.824-12.878-3.929-23.096-4.615-29.378C56.93 25.641 40.149.71 40.149.71c-.503-.445-1.213-.64-2.074-.64-6.115 0-19.764 9.856-19.764 9.856"/>
        <path id="x8fd9adu1e" d="M.084 3.742c-.22 3.789 2.328 5.436 5.149 5.725l.85-.003L6.006.249 5.243.032H5.22c-.358 0-4.926.07-5.137 3.71"/>
        <path id="dlefq9co0g" d="M.01 4.328c.11 4.191 5.398 4.52 6.644 4.92L7.7 9.109 7.26.491 6.47.131S5.869.025 5.032.025C3.098.025-.092.59.01 4.328"/>
        <path id="eu1rki6b0i" d="M36.416.003L4.643.015C2.093.017.007 2.103.01 4.653L.044 80.46c0 2.552 2.089 4.636 4.638 4.636l31.772-.016c2.55 0 4.635-2.087 4.634-4.64l-.033-75.805C41.052 2.087 38.969.003 36.422.003h-.006"/>
        <path id="ots50irpvk" d="M.507.05C.266.05.071.24.071.47c0 .237.197.425.436.423L11.502.89c.242 0 .437-.189.437-.42 0-.235-.195-.425-.437-.425L.507.05z"/>
        <path id="pzcrqjjqwm" d="M.078.789c0 .408.33.74.74.74.406-.002.738-.332.738-.742C1.556.381 1.224.05.818.05c-.41 0-.74.333-.74.74"/>
        <path id="239ghdb17o" d="M2.368.073C1.098.071.066 1.105.066 2.374c0 1.27 1.036 2.306 2.306 2.305h.258c.616-.002 1.194-.24 1.629-.677.436-.436.674-1.013.674-1.63-.002-.614-.24-1.193-.676-1.63-.434-.433-1.014-.67-1.63-.67l-.259.001z"/>
        <path id="yt85alxl9p" d="M0.011 0.055L0.042 67.73 38.711 67.712 38.681 0.039z"/>
        <path id="h0pjb54urr" d="M1.041.865C-1.244 1.844-.529 9.44 12 10.853c1.83 1.819 5.615 21.029 16.237 28.44l1.038-26.854S18.955 2.07 15.197.89C13.46.345 10.534.081 7.738.081c-2.812 0-5.492.267-6.697.784"/>
        <path id="2caciv76mt" d="M.48.625c-.366.114-.588.59-.225.825 1.412.801 4.646 2.131 5.624 2.002C6.085 2.764 6.943.947 8.178.124 7.625.05 6.89.014 6.08.014c-1.942 0-4.309.208-5.6.611"/>
        <path id="yswu5bjoew" d="M8.596 0.007L0 6.519 58.239 6.518 49.643 0.007z"/>
        <path id="6fz2bnazwy" d="M6.15 0.007L0.081 6.519 41.195 6.518 35.128 0.007z"/>
        <path id="r5p22682gA" d="M3.588 0.007L0 6.519 24.315 6.518 20.726 0.007z"/>
        <path id="0gepp3cqlC" d="M1.31 0.007L0.042 6.519 8.629 6.518 7.361 0.007z"/>
        <path id="laiva8yv7E" d="M.025.068s.457 4.374 4.247 4.374c3.456 0 4.152-4.374 4.152-4.374h-8.4z"/>
        <path id="yu8r43niuG" d="M.033.068s.696 4.374 4.151 4.374c3.792 0 4.248-4.374 4.248-4.374h-8.4z"/>
        <path id="pnd208hs4I" d="M.042.068S.206 4.4 4.168 4.4C8.466 4.4 8.629.068 8.629.068H.042z"/>
        <linearGradient id="5ph6pgh1ou" x1="96.816%" x2="57.885%" y1="53.692%" y2="46.501%">
            <stop offset="0%" stop-color="#FBD6F9"/>
            <stop offset="100%" stop-color="#FBEBF9"/>
        </linearGradient>
    </defs>
    <g fill="none" fill-rule="evenodd">
        <g>
            <g>
                <g transform="translate(-534 -574) translate(525 317) translate(9 257)">
                    <mask id="l003h1vscb" fill="#fff">
                        <use xlink:href="#nhzg0inzqa"/>
                    </mask>
                    <g mask="url(#l003h1vscb)">
                        <g>
                            <g transform="translate(18 16) translate(8.975 46.999)">
                                <mask id="npuusnnx9d" fill="#fff">
                                    <use xlink:href="#apzhapssjc"/>
                                </mask>
                                <path fill="#FFAE94" d="M18.311 9.926l-2.853 24.893S8.098 37.892 3.892 39.1c-4.209 1.21-5.257 4.02-1.679 5.564 3.56 1.54 9.143.211 13.289-.537 4.149-.746 6.614.999 7.72 3.75 1.107 2.752 6.303 18.273 16.642 22.48.826 1.574 2.071 5.34 3.55 10.417h27.758c-4.423-8.972-7.904-16.548-8.99-20.202-3.824-12.878-3.929-23.096-4.615-29.378C56.93 25.641 40.149.71 40.149.71c-.503-.445-1.213-.64-2.074-.64-6.115 0-19.764 9.856-19.764 9.856" mask="url(#npuusnnx9d)"/>
                            </g>
                            <g fill="#E28567">
                                <path d="M24.917.71s.597.886 1.568 2.357c.204 6.377.684 19.401 1.242 20.347.74 1.253 3.82 5.606 3.82 5.606s-5.562-4.833-7.984-6.783c-1.921-1.55-1.11-16.195-.698-22.164.85.003 1.554.194 2.052.637M1.427 37.656l.127-1.115 18.561.201 1.92 5.248L.078 38.207c.83-.336 1.35-.551 1.35-.551" transform="translate(18 16) translate(24.208 46.999)"/>
                            </g>
                            <g transform="translate(18 16) translate(3.294 52.104)">
                                <mask id="9xtv922xnf" fill="#fff">
                                    <use xlink:href="#x8fd9adu1e"/>
                                </mask>
                                <path fill="#FFAE94" d="M.084 3.742c-.22 3.789 2.328 5.436 5.149 5.725l.85-.003L6.006.249 5.243.032H5.22c-.358 0-4.926.07-5.137 3.71" mask="url(#9xtv922xnf)"/>
                            </g>
                            <g transform="translate(18 16) translate(2.14 69.56)">
                                <mask id="n9d4whvrxh" fill="#fff">
                                    <use xlink:href="#dlefq9co0g"/>
                                </mask>
                                <path fill="#FFAE94" d="M.01 4.328c.11 4.191 5.398 4.52 6.644 4.92L7.7 9.109 7.26.491 6.47.131S5.869.025 5.032.025C3.098.025-.092.59.01 4.328" mask="url(#n9d4whvrxh)"/>
                            </g>
                            <g fill="#EFEFEF">
                                <path d="M.085 15.822c.002.319.162.579.359.577.197.003.357-.259.355-.58L.796 7.308c.001-.32-.161-.58-.357-.58-.198.001-.356.26-.357.58l.003 8.514zM41.74 18.494c0 .319.15.58.336.58.184-.001.336-.261.336-.58l-.003-4.927c0-.318-.151-.579-.336-.579-.184 0-.336.26-.336.58l.003 4.926zM41.737 11.636c0 .32.151.58.336.58.185-.001.335-.262.336-.58l-.002-4.926c0-.319-.152-.58-.337-.58-.185 0-.335.261-.335.58l.002 4.926zM41.734 4.296c0 .317.15.579.336.578.185 0 .336-.261.335-.578l-.002-3.284c.001-.318-.15-.58-.336-.579-.184 0-.335.26-.336.579l.003 3.284z" transform="translate(18 16) translate(7.905 10.492)"/>
                            </g>
                            <g transform="translate(18 16) translate(8.563 .313)">
                                <mask id="emf00g6kcj" fill="#fff">
                                    <use xlink:href="#eu1rki6b0i"/>
                                </mask>
                                <path fill="#162430" d="M36.416.003L4.643.015C2.093.017.007 2.103.01 4.653L.044 80.46c0 2.552 2.089 4.636 4.638 4.636l31.772-.016c2.55 0 4.635-2.087 4.634-4.64l-.033-75.805C41.052 2.087 38.969.003 36.422.003h-.006" mask="url(#emf00g6kcj)"/>
                            </g>
                            <g transform="translate(18 16) translate(22.479 4.265)">
                                <mask id="jkn22cd0fl" fill="#fff">
                                    <use xlink:href="#ots50irpvk"/>
                                </mask>
                                <path fill="#D8D8D8" d="M.507.05C.266.05.071.24.071.47c0 .237.197.425.436.423L11.502.89c.242 0 .437-.189.437-.42 0-.235-.195-.425-.437-.425L.507.05z" mask="url(#jkn22cd0fl)"/>
                            </g>
                            <g transform="translate(18 16) translate(36.064 4.018)">
                                <mask id="xgy1h5mpnn" fill="#fff">
                                    <use xlink:href="#pzcrqjjqwm"/>
                                </mask>
                                <path fill="#D8D8D8" d="M.078.789c0 .408.33.74.74.74.406-.002.738-.332.738-.742C1.556.381 1.224.05.818.05c-.41 0-.74.333-.74.74" mask="url(#xgy1h5mpnn)"/>
                            </g>
                            <g transform="translate(18 16) translate(26.678 78.617)"/>
                            <g transform="translate(18 16) translate(9.88 9.205)">
                                <mask id="yuzc1xhlsq" fill="#fff">
                                    <use xlink:href="#yt85alxl9p"/>
                                </mask>
                                <path fill="#E89CAE" d="M0.011 0.055L0.042 67.73 38.711 67.712 38.681 0.039z" mask="url(#yuzc1xhlsq)"/>
                            </g>
                            <g transform="translate(18 16) translate(29.807 67.007)">
                                <mask id="zrnavmr5ks" fill="#fff">
                                    <use xlink:href="#h0pjb54urr"/>
                                </mask>
                                <path fill="#FFAE94" d="M1.041.865C-1.244 1.844-.529 9.44 12 10.853c1.83 1.819 5.615 21.029 16.237 28.44l1.038-26.854S18.955 2.07 15.197.89C13.46.345 10.534.081 7.738.081c-2.812 0-5.492.267-6.697.784" mask="url(#zrnavmr5ks)"/>
                            </g>
                            <g fill="#E28567">
                                <path d="M3.72 19.417C6.199 25.31 9.728 31.804 14.93 35.435c0 0-3.378-1.31-5.3-3.688C4.844 25.823 2.426 18.171.535 12.87l-.48-1.689s2.55 5.589 3.665 8.237M17.002 11.367l-1.659-2.04c-.055-.055-5.254-5.93-9.6-9.317 0 0 3.442 2.192 4.914 3.522 2.914 2.634 3.191 2.86 3.98 3.78 1.833 2.135 2.365 4.055 2.365 4.055" transform="translate(18 16) translate(43.393 70.466)"/>
                            </g>
                            <g transform="translate(18 16) translate(31.042 67.337)">
                                <mask id="h0k31kwwrv" fill="#fff">
                                    <use xlink:href="#2caciv76mt"/>
                                </mask>
                                <path fill="url(#5ph6pgh1ou)" d="M.48.625c-.366.114-.588.59-.225.825 1.412.801 4.646 2.131 5.624 2.002C6.085 2.764 6.943.947 8.178.124 7.625.05 6.89.014 6.08.014c-1.942 0-4.309.208-5.6.611" mask="url(#h0k31kwwrv)"/>
                            </g>
                            <path fill="#E28567" d="M46.04 68.649s-2.664 1.365-3.488 2.828c-.318.57-1.005 2.594-1.005 2.594s.025-1.492.72-2.896c.856-1.729 3.542-2.552 3.643-2.567l.13.04z" transform="translate(18 16)"/>
                            <g transform="translate(18 16) translate(0 8.958)">
                                <mask id="wt48cpzbkx" fill="#fff">
                                    <use xlink:href="#yswu5bjoew"/>
                                </mask>
                                <path fill="#46B2AC" d="M8.596 0.007L0 6.519 58.239 6.518 49.643 0.007z" mask="url(#wt48cpzbkx)"/>
                            </g>
                            <g transform="translate(18 16) translate(8.48 8.958)">
                                <mask id="9zyf26qmwz" fill="#fff">
                                    <use xlink:href="#6fz2bnazwy"/>
                                </mask>
                                <path fill="#FFF" d="M6.15 0.007L0.081 6.519 41.195 6.518 35.128 0.007z" mask="url(#9zyf26qmwz)"/>
                            </g>
                            <g transform="translate(18 16) translate(16.962 8.958)">
                                <mask id="avjlag44tB" fill="#fff">
                                    <use xlink:href="#r5p22682gA"/>
                                </mask>
                                <path fill="#46B2AC" d="M3.588 0.007L0 6.519 24.315 6.518 20.726 0.007z" mask="url(#avjlag44tB)"/>
                            </g>
                            <g transform="translate(18 16) translate(24.784 8.958)">
                                <mask id="pw2q8fjelD" fill="#fff">
                                    <use xlink:href="#0gepp3cqlC"/>
                                </mask>
                                <path fill="#FFF" d="M1.31 0.007L0.042 6.519 8.629 6.518 7.361 0.007z" mask="url(#pw2q8fjelD)"/>
                            </g>
                            <path fill="#64CCC9" d="M49.676 15.449h8.563s-.718 4.31-4.197 4.31c-3.812 0-4.366-4.31-4.366-4.31" transform="translate(18 16)"/>
                            <g transform="translate(18 16) translate(41.252 15.38)">
                                <mask id="mqyr0l4h7F" fill="#fff">
                                    <use xlink:href="#laiva8yv7E"/>
                                </mask>
                                <path fill="#EAEAEA" d="M.025.068s.457 4.374 4.247 4.374c3.456 0 4.152-4.374 4.152-4.374h-8.4z" mask="url(#mqyr0l4h7F)"/>
                            </g>
                            <g fill="#64CCC9">
                                <path d="M37.212 4.442c3.565 0 4.064-4.374 4.064-4.374h-7.863s-.022 4.374 3.799 4.374M8.596.068H.033s.719 4.31 4.195 4.31c3.814 0 4.368-4.31 4.368-4.31" transform="translate(18 16) translate(0 15.38)"/>
                            </g>
                            <g transform="translate(18 16) translate(8.563 15.38)">
                                <mask id="r44mr3o1jH" fill="#fff">
                                    <use xlink:href="#yu8r43niuG"/>
                                </mask>
                                <path fill="#EAEAEA" d="M.033.068s.696 4.374 4.151 4.374c3.792 0 4.248-4.374 4.248-4.374h-8.4z" mask="url(#r44mr3o1jH)"/>
                            </g>
                            <path fill="#64CCC9" d="M21.062 19.823c-3.567 0-4.067-4.374-4.067-4.374h7.864s.024 4.374-3.797 4.374" transform="translate(18 16)"/>
                            <g transform="translate(18 16) translate(24.784 15.38)">
                                <mask id="q5x871ejyJ" fill="#fff">
                                    <use xlink:href="#pnd208hs4I"/>
                                </mask>
                                <path fill="#EAEAEA" d="M.042.068S.206 4.4 4.168 4.4C8.466 4.4 8.629.068 8.629.068H.042z" mask="url(#q5x871ejyJ)"/>
                            </g>
                        </g>
                    </g>
                </g>
            </g>
        </g>
    </g>
</svg>
