<svg xmlns="http://www.w3.org/2000/svg" width="70" height="70" viewBox="0 0 70 70">
    <g fill="none" fill-rule="evenodd">
        <g>
            <g>
                <g>
                    <g>
                        <path fill="#B58D68" d="M21.557 45.294L70 45.294 70 0 21.557 0z" transform="translate(-548 -477) translate(525 317) translate(23 160) translate(0 23.038)"/>
                        <path fill="#C1976B" d="M0 45.294L48.443 45.294 48.443 0 0 0z" transform="translate(-548 -477) translate(525 317) translate(23 160) translate(0 23.038)"/>
                        <path fill="#967254" d="M57.647 0L57.647 10.372 58.171 10.899 58.788 10.349 59.405 10.899 60.022 10.349 60.64 10.899 61.258 10.349 61.877 10.9 62.491 10.353 62.491 0z" transform="translate(-548 -477) translate(525 317) translate(23 160) translate(0 23.038)"/>
                        <path fill="#101820" d="M13.08 6.248c0-1.579 1.41-2.857 3.149-2.857s3.148 1.28 3.148 2.858h-2.913v3.555c0 .341.275.62.614.62.338 0 .613-.278.613-.62h.473c-.001.604-.488 1.096-1.087 1.096s-1.086-.492-1.086-1.096V6.248H13.08zM8.962 5.803V3.391l3.39.001v2.412c0 .884-.638 1.612-1.464 1.728v2.892h1.093v.476H9.33v-.477h1.094V7.533c-.826-.117-1.463-.845-1.463-1.729M2.664 10.898L7.266 10.9 7.266 10.416 2.664 10.415zM6.055 3.391L7.024 4.421 6.279 4.42 6.278 9.689 5.831 9.689 5.832 4.42 5.087 4.42zM2.664 4.42L3.633 3.391 4.602 4.421 3.857 4.421 3.855 9.689 3.409 9.689 3.41 4.421z" transform="translate(-548 -477) translate(525 317) translate(23 160) translate(0 23.038)"/>
                    </g>
                    <g>
                        <path fill="#B58D68" d="M0 23.038L57.595 23.038 57.595 0 0 0z" transform="translate(-548 -477) translate(525 317) translate(23 160) translate(6.203)"/>
                        <path fill="#101820" d="M3.526 14.81L18.101 14.81 18.101 14.107 3.526 14.105zM3.526 16.219L22.332 16.221 22.333 15.518 3.527 15.515zM3.527 17.627L22.332 17.631 22.333 16.927 3.526 16.926z" transform="translate(-548 -477) translate(525 317) translate(23 160) translate(6.203)"/>
                    </g>
                </g>
            </g>
        </g>
    </g>
</svg>
