<svg xmlns="http://www.w3.org/2000/svg" width="72" height="16" viewBox="0 0 72 16">
    <g fill="none" fill-rule="evenodd">
        <g fill-rule="nonzero">
            <g>
                <g>
                    <g>
                        <g>
                            <path fill="#FFF" d="M23.276 5.907c2.918 0 5.284 2.258 5.285 5.043 0 2.785-2.366 5.043-5.285 5.043s-5.284-2.258-5.284-5.043 2.366-5.043 5.284-5.043zm11.904 0c2.919 0 5.284 2.258 5.285 5.043 0 2.785-2.365 5.043-5.285 5.043-2.919 0-5.284-2.258-5.284-5.043s2.366-5.043 5.284-5.043zm20.516.03c2.647 0 3.418 1.581 3.508 1.787l.092-1.48h1.839c.305 0 .552.247.552.552v8.597c0 .142-.115.258-.258.258h-2.116l-.114-1.388c-.474.608-1.537 1.569-3.52 1.569-2.902 0-4.318-2.419-4.318-4.922 0-2.504 1.503-4.973 4.335-4.973zm-50.137.565c1.109 0 1.891.316 2.55.912.698.632 1.067 1.552 1.067 2.7v5.268c0 .162-.13.292-.289.292H6.464c-.159 0-.287-.13-.286-.293v-.652l.001-.26V13.9l.001-.301v-.621l.001-.314.001-1.47v-1.021c0-2.782-1.39-3.344-1.793-3.448-.022-.006-.022-.036-.002-.042.37-.117.763-.18 1.172-.18zm6.373 0c1.109 0 1.891.316 2.55.912.698.632 1.067 1.552 1.067 2.7v5.268c0 .162-.13.292-.289.292h-2.423c-.16 0-.288-.13-.286-.293v-.652l.001-.26V13.9l.001-.301v-.621l.001-.314v-1.2l.001-.27v-1.021c0-2.782-1.39-3.344-1.793-3.448-.022-.006-.022-.036-.002-.042.37-.117.763-.18 1.172-.18zm38.98-.183l-4.019 9.205c-.038.086-.124.143-.219.144h-1.559c-.095 0-.181-.057-.218-.144l-4.019-9.205 1.846.01c.301.001.656.241.807.545l.058.117 2.306 5.225L48.2 6.99l.058-.117c.151-.304.506-.543.807-.545l1.846-.01zm20.998-.073v.645c0 .305-.086.616-.596 1.298l-.027.04-2.032 2.67-2.018 2.652h4.227c.28 0 .507.229.507.512v1.6h-8.279v-.645c0-.305.086-.616.595-1.298.012-.015.02-.028.028-.041L66.43 10.9l1.935-2.542h-4.337V6.825c0-.32.26-.579.579-.579h7.303zM2.073 5.093c.289 0 .527.226.545.515l.243 4.026v5.768c.001.143-.114.26-.256.26H.258c-.143 0-.258-.117-.258-.26V5.094h2.073zm21.16 2.696c-1.592 0-2.84 1.389-2.84 3.143 0 1.755 1.29 3.178 2.883 3.178s2.884-1.424 2.885-3.178c0-1.755-1.335-3.143-2.928-3.143zm11.905 0c-1.593 0-2.841 1.389-2.841 3.143 0 1.755 1.29 3.178 2.883 3.178s2.884-1.424 2.885-3.178c0-1.755-1.335-3.143-2.927-3.143zm21.335-.014c-1.507 0-2.729 1.391-2.729 3.109 0 1.717 1.222 3.109 2.729 3.109 1.507 0 2.667-1.392 2.667-3.11 0-1.717-1.16-3.108-2.667-3.108z" transform="translate(-130 -974) translate(0 787) translate(0 157) translate(40 30) translate(90)"/>
                            <path fill="#E89CAE" d="M8.75 2.798s3.978-5.7 8.822-.83c0 0 2.115-2.642 5.086-.518.104.075.047.24-.081.241-.742.003-2.216-.327-3.65 1.003 0 0 .45.086.363.587 0 0-.69-.294-1.364.552-.674.847-1.26.708-1.762-.052S13.632.311 8.75 2.798z" transform="translate(-130 -974) translate(0 787) translate(0 157) translate(40 30) translate(90)"/>
                        </g>
                    </g>
                </g>
            </g>
        </g>
    </g>
</svg>
