<svg xmlns="http://www.w3.org/2000/svg" width="162" height="36" viewBox="0 0 162 36">
    <g fill="none" fill-rule="evenodd">
        <g fill-rule="nonzero">
            <g>
                <path fill="#101820" d="M52.372 13.29c6.565 0 11.888 5.08 11.89 11.347 0 6.266-5.322 11.346-11.89 11.346-6.568 0-11.89-5.08-11.89-11.346 0-6.267 5.324-11.346 11.89-11.346zm26.784 0c6.566 0 11.888 5.08 11.89 11.347 0 6.266-5.322 11.346-11.89 11.346-6.568 0-11.89-5.08-11.89-11.346 0-6.267 5.324-11.346 11.89-11.346zm46.16.068c5.956 0 7.691 3.558 7.892 4.02l.208-3.33h4.137c.687 0 1.244.557 1.244 1.244v19.341c0 .32-.26.582-.582.582h-4.76l-.257-3.123c-1.068 1.367-3.458 3.53-7.922 3.53-6.528 0-9.714-5.443-9.714-11.075s3.382-11.19 9.754-11.19zM12.508 14.63c2.495 0 4.255.71 5.737 2.051 1.572 1.424 2.4 3.491 2.4 6.074V34.61c0 .364-.29.657-.648.657h-5.453c-.357 0-.646-.295-.644-.659l.006-4.62v-.852l.001-.428v-.85l.001-.42V26.22l.001-.387.001-1.722v-1.222c0-6.26-3.129-7.524-4.035-7.759-.048-.012-.05-.08-.004-.094.83-.261 1.716-.406 2.637-.406zm14.34 0c2.494 0 4.254.71 5.736 2.051 1.572 1.424 2.4 3.491 2.4 6.074V34.61c0 .364-.29.657-.648.657h-5.452c-.36 0-.65-.295-.645-.659.002-.81.004-2.021.005-3.373l.001-.826.001-1.273v-.855l.001-.424.001-1.24v-.397l.001-1.47V22.89c0-6.26-3.129-7.524-4.035-7.759-.048-.012-.05-.08-.004-.094.83-.261 1.716-.406 2.637-.406zm87.703-.412l-9.042 20.71c-.086.195-.278.323-.492.325h-3.507c-.214 0-.409-.128-.492-.325l-9.042-20.71 4.152.023c.679.002 1.476.542 1.817 1.226l.13.262 5.188 11.757 5.19-11.757.129-.262c.341-.684 1.138-1.222 1.817-1.226l4.152-.023zm47.246-.163v1.45c0 .687-.193 1.386-1.34 2.92-.025.033-.044.063-.062.092l-4.572 6.007-4.54 5.965h9.511c.63 0 1.141.515 1.141 1.153v3.598h-18.628v-1.45c0-.687.193-1.386 1.34-2.92.025-.034.044-.063.063-.092l4.757-6.252 4.353-5.72h-9.757v-3.45c0-.72.584-1.301 1.302-1.301h16.432zM4.663 11.459c.651 0 1.187.509 1.227 1.16l.548 9.058v12.977c.002.322-.257.584-.578.584H.58c-.32 0-.58-.262-.58-.582V11.46h4.663zm47.612 6.066c-3.583 0-6.392 3.125-6.392 7.072 0 3.95 2.905 7.15 6.489 7.15 3.583 0 6.488-3.202 6.49-7.15 0-3.95-3.003-7.072-6.587-7.072zm26.785 0c-3.583 0-6.392 3.125-6.392 7.072 0 3.95 2.905 7.15 6.488 7.15 3.583 0 6.488-3.202 6.49-7.15 0-3.95-3.003-7.072-6.586-7.072zm48.003-.032c-3.39 0-6.139 3.132-6.139 6.995 0 3.864 2.749 6.995 6.14 6.995 3.39 0 6.002-3.131 6.002-6.995 0-3.863-2.612-6.995-6.003-6.995z" transform="translate(-639 -50) translate(639 50)"/>
                <path fill="#E89CAE" d="M19.69 6.296s8.949-12.824 19.847-1.867c0 0 4.76-5.944 11.443-1.166.234.167.107.54-.182.542-1.668.006-4.986-.737-8.211 2.256 0 0 1.01.195.816 1.321 0 0-1.555-.661-3.07 1.243-1.516 1.905-2.836 1.593-3.965-.117C35.24 6.798 30.671.701 19.69 6.296z" transform="translate(-639 -50) translate(639 50)"/>
            </g>
        </g>
    </g>
</svg>
