<svg xmlns="http://www.w3.org/2000/svg" width="25" height="20" viewBox="0 0 25 20">
    <g fill="none" fill-rule="evenodd">
        <g fill="#FFF" fill-rule="nonzero">
            <g>
                <g>
                    <path d="M1319.516 30.396c-.921.4-1.896.666-2.893.786 1.052-.63 1.84-1.62 2.219-2.788-.989.59-2.07 1.005-3.2 1.228-1.551-1.686-4.044-2.108-6.063-1.028-2.018 1.081-3.053 3.393-2.517 5.623-4.042-.205-7.808-2.12-10.358-5.27-.442.774-.675 1.65-.674 2.543-.004 1.682.834 3.255 2.23 4.188-.799-.021-1.58-.236-2.28-.626v.061c.013 2.393 1.704 4.447 4.046 4.914-.437.133-.892.204-1.349.209-.316-.004-.632-.033-.943-.086.663 2.046 2.547 3.447 4.694 3.488-1.768 1.395-3.952 2.156-6.202 2.162-.41.002-.82-.023-1.226-.073 2.298 1.486 4.975 2.276 7.71 2.272 3.813.04 7.481-1.458 10.18-4.156 2.7-2.698 4.204-6.37 4.175-10.191V33c.961-.718 1.791-1.6 2.451-2.604z" transform="translate(-1295 -972) translate(0 787) translate(0 157)"/>
                </g>
            </g>
        </g>
    </g>
</svg>
